# xmcd CD database file
#
# Track frame offsets:
#	150
#	19020
#	33778
#	53194
#	74646
#	97582
#	123448
#	148532
#	167433
#	185932
#	216051
#	236052
#	249742
#	264552
#	277227
#	295176
#
# Disc length: 4219 seconds
#
# Revision: 1
# Processed by: cddbd v1.5.2PL0 Copyright (c) Steve Scherf et al.
# Submitted via: CDex 1.51
#
DISCID=f1107910
DTITLE=Noa and Solis String Quartet - Live In Israel
DYEAR=2006
DGENRE=Jazz
TTITLE0=For father
TTITLE1=Mishaela
TTITLE2=Wildflower
TTITLE3=I don´t know
TTITLE4=Now forget
TTITLE5=Eye in the sky
TTITLE6=Motor lullabies
TTITLE7=Barren (Uri)
TTITLE8=Yuma
TTITLE9=Child of man
TTITLE10=Ray of light
TTITLE11=Santa Lucia Luntana
TTITLE12=Torna a surriento
TTITLE13=Beautiful that way
TTITLE14=Shalom shalom
TTITLE15=Ave Maria
EXTD=YEAR: 2006
EXTT0=
EXTT1=
EXTT2=
EXTT3=
EXTT4=
EXTT5=
EXTT6=
EXTT7=
EXTT8=
EXTT9=
EXTT10=
EXTT11=
EXTT12=
EXTT13=
EXTT14=
EXTT15=
PLAYORDER=
